<svg width="33" height="33" viewBox="0 0 33 33" fill="none" xmlns="http://www.w3.org/2000/svg">
<path d="M19.341 0.0307007C18.5445 0.165703 17.6804 0.516712 17.0594 0.962225C16.5599 1.31324 11.3893 6.47038 11.0383 6.9564C10.2957 7.98918 10.0257 8.90045 10.0797 10.2167C10.1135 11.2225 10.2147 11.5533 10.8762 12.8831L11.3083 13.7403L5.72585 19.3295C0.912964 24.1491 0.136691 24.9457 0.0759397 25.1819C-0.0253132 25.5532 -0.0253132 31.0951 0.0759397 31.4596C0.170442 31.8039 0.568704 32.2021 0.912964 32.2966C1.28422 32.3979 6.81938 32.3979 7.19064 32.2966C7.5349 32.2021 7.93316 31.8039 8.02767 31.4596C8.06817 31.3111 8.10192 30.6563 8.10192 29.9881V28.7933H9.38446C10.775 28.7933 10.9708 28.7528 11.3218 28.3748C11.5783 28.1047 11.612 27.8887 11.612 26.559V25.2832H12.8136C13.4751 25.2832 14.1298 25.2494 14.2783 25.2089C14.6361 25.1077 15.0209 24.7162 15.1221 24.3381C15.2841 23.7509 14.9669 23.0961 14.4336 22.8869C14.1838 22.7923 13.8531 22.7856 12.044 22.7991L9.94472 22.8193L9.67471 23.0016C9.20895 23.3121 9.1482 23.5079 9.12795 24.9929L9.1077 26.2957H7.90616C6.67088 26.2957 6.40762 26.3362 6.04986 26.586C5.67185 26.856 5.60435 27.1327 5.60435 28.5705V29.8733H4.0518H2.49926V27.963V26.0594L8.17617 20.3893C12.0643 16.5079 13.8936 14.6314 13.9813 14.4491C14.1838 14.0171 14.1501 13.7471 13.8058 13.1193C12.692 11.0875 12.4153 10.3112 12.557 9.56872C12.6988 8.77895 12.7663 8.69795 15.7769 5.70086C18.774 2.71728 18.828 2.67677 19.6177 2.52827C20.1713 2.42702 20.5695 2.49452 21.4335 2.84553C23.6139 3.73656 25.6862 5.1946 27.0025 6.76739C28.042 8.01618 29.068 9.72398 29.635 11.182C29.824 11.6545 29.8578 11.8435 29.8645 12.3228C29.8713 12.8291 29.8443 12.9438 29.6553 13.3421C29.4663 13.7538 29.1963 14.0373 26.6379 16.5822C23.6004 19.5995 23.4924 19.6873 22.6688 19.829C22.2841 19.8898 22.1356 19.883 21.7576 19.7885C21.3323 19.6873 20.1105 19.1202 19.1182 18.5667C18.6187 18.29 18.2272 18.2562 17.8357 18.4587C17.3564 18.7017 17.1472 19.046 17.1472 19.586C17.1472 20.0518 17.3564 20.3893 17.8424 20.6998C18.4162 21.0643 20.1915 21.9283 20.7248 22.1038C22.2571 22.5966 23.8434 22.3536 25.2474 21.4153C25.6794 21.1251 31.0728 15.7519 31.4306 15.2456C32.0719 14.3614 32.3554 13.4501 32.3554 12.289C32.3554 11.425 32.2676 11.0403 31.8288 9.98723C31.1606 8.40094 30.1008 6.61214 29.0748 5.33635C28.1365 4.17532 26.6042 2.84553 25.1799 1.96125C23.9379 1.19173 22.0816 0.334457 21.2243 0.138702C20.6978 0.0104485 19.773 -0.0368042 19.341 0.0307007Z" fill="white"/>
</svg>
