<svg width="19" height="22" viewBox="0 0 19 22" fill="none" xmlns="http://www.w3.org/2000/svg">
<path d="M10 14C10 15.11 9.11 16 8 16C6.89 16 6 15.11 6 14C6 12.89 6.9 12 8 12C9.1 12 10 12.9 10 14ZM2 19V9H14V12.09C14.33 12.04 14.66 12 15 12C15.34 12 15.67 12.04 16 12.09V9C16 7.9 15.11 7 14 7H13V5C13 2.24 10.76 0 8 0C5.24 0 3 2.24 3 5H5C5 3.34 6.34 2 8 2C9.66 2 11 3.34 11 5V7H2C0.89 7 0 7.9 0 9V19C0 20.1 0.89 21 2 21H9.81C9.46 20.39 9.22 19.72 9.09 19H2ZM16 17V14H14V17H11V19H14V22H16V19H19V17H16Z" fill="white"/>
</svg>
